Simulation
nRows=40
nColumns=15
endheader
time  TH_x TH_y TH_z SC_y  SC_z  SC_x  AC_y  AC_z  AC_x  GH_y  GH_z  GH_yy  EL_x  PS_y
5.745  0.000000  0.000000  0.000000  -50.16421934617825  19.374205540714623  39.1405094273376  69.89382473850327  -9.493934029708665  22.24466023405998  -3.9238754956567212  57.71481311780749  -17.434911215855326  18.398720901370616  120.000000
5.80245  0.000000  0.000000  0.000000  -48.67937595231375  18.111145402286255  34.77749811850127  70.35979191814903  -9.335974842992274  22.378962102578722  -4.242212684959943  57.818000485123754  -16.777635529322023  18.691700195025778  120.000000
5.8599  0.000000  0.000000  0.000000  -46.99558950527886  16.360856078862977  29.587431370312228  70.72179719701414  -9.148466955991989  22.5740607894944  -4.782416375263274  57.84784058004094  -15.53813208530219  19.075543245285132  120.000000
5.91735  0.000000  0.000000  0.000000  -45.27483406829567  14.098354924690145  23.85412763739148  70.82644732899858  -8.997051650803085  22.769253849567825  -5.552542810476599  57.81086514045672  -13.682179223225075  19.462528756911553  120.000000
5.9748  0.000000  0.000000  0.000000  -43.662144627705594  11.370628316441989  17.908901421018125  70.55602066833222  -8.943005880632207  22.90552658596651  -6.503955115712736  57.70549766308364  -11.260206524381532  19.755769297793414  120.000000
6.03225  0.000000  0.000000  0.000000  -42.24253266166352  8.29290645077916  12.09551714979959  69.85964344586715  -9.031403446484866  22.931287402456068  -7.560064868122883  57.50909851676297  -8.407020504283798  19.874520574911596  120.000000
6.089700000000001  0.000000  0.000000  0.000000  -41.0012417657196  5.0298935956321404  6.733755482140852  68.76508273156944  -9.289811834941412  22.795466548387488  -8.677225593465314  57.166787052604505  -5.308936403487155  19.76752355300519  120.000000
6.14715  0.000000  0.000000  0.000000  -39.8306301368107  1.7691395970360655  2.1046751373592687  67.36518993885439  -9.724773268996675  22.4533350507304  -9.86951542755077  56.57237554101446  -2.1567344668857156  19.418743890270616  120.000000
6.2046  0.000000  0.000000  0.000000  -38.60440320055935  -1.2802672092069927  -1.5667681005508989  65.78751017140846  -10.321242262899457  21.872999696250627  -11.156559316874999  55.58652412833954  0.8852174823441656  18.842019023567907  120.000000
6.26205  0.000000  0.000000  0.000000  -37.312017395951656  -3.886589713637396  -4.142261857535694  64.16426888460579  -11.050083522157673  21.05092182723903  -12.45161256299833  54.09067995684588  3.6780984348128896  18.093419032385583  120.000000
6.3195  0.000000  0.000000  0.000000  -36.114157202181374  -5.840046761289619  -5.601888509216046  62.61621604433931  -11.873166974659231  20.01227971125415  -13.52491901505175  52.040504639587056  6.102870868146042  17.2686976777161  120.000000
6.37695  0.000000  0.000000  0.000000  -35.20157005471175  -7.0365541482534795  -6.030371696297579  61.239060695427725  -12.745193169444278  18.780525169098336  -14.14423068984279  49.47829318013573  8.099975556640656  16.485172925084566  120.000000
6.4344  0.000000  0.000000  0.000000  -34.63839763659542  -7.4969124863041765  -5.563715311669812  60.07369371195739  -13.647319661190492  17.400205060731302  -14.237828571687272  46.497624057101504  9.706598038313578  15.833576386314778  120.000000
6.49185  0.000000  0.000000  0.000000  -34.359036900332356  -7.33402373179996  -4.388392221360772  59.09353709695132  -14.554299828462216  15.917017571567046  -13.859261626547704  43.20002340147637  10.997614481485734  15.349038689669765  120.000000
6.549300000000001  0.000000  0.000000  0.000000  -34.2713812947906  -6.725203699693989  -2.7638734545477166  58.22276677117671  -15.322882319460065  14.320127106540133  -13.034629013584626  39.63964356695514  11.994237840001698  15.063762799360028  120.000000
6.60675  0.000000  0.000000  0.000000  -34.30248049310129  -5.848177293736115  -0.9864217995971387  57.384099662128335  -15.734835406595161  12.59350767294519  -11.69267245793843  35.84274254816737  12.610356328915536  15.00169054900339  120.000000
6.6642  0.000000  0.000000  0.000000  -34.384205347095424  -4.839474530135507  0.6717835224952863  56.521490186341595  -15.619246963007805  10.776913058819428  -9.700237382233142  31.860400906140125  12.68075826874673  15.153848604285312  120.000000
6.72165  0.000000  0.000000  0.000000  -34.48865956055322  -3.784112779495685  1.9908700396329246  55.60071757921155  -14.902054064592352  8.967143430195513  -6.877018283383138  27.78275849570936  11.991335471403602  15.489162453726891  120.000000
6.7791  0.000000  0.000000  0.000000  -34.64843240165298  -2.7445251911925985  2.8116545084911966  54.60294796601414  -13.599364208199068  7.276480571655519  -2.975011824911425  23.745518771317407  10.276426068078612  15.955228751015097  120.000000
6.83655  0.000000  0.000000  0.000000  -34.902432575666424  -1.8158970734057973  3.04962409688786  53.52456321327519  -11.777376065335456  5.7819515514949495  2.30444696036017  19.924536771723687  7.232923948504476  16.46858594104117  120.000000
6.894  0.000000  0.000000  0.000000  -35.277474280507114  -1.0567696398264228  2.7015521187825033  52.38487005963763  -9.538615172743034  4.540044531954921  9.276222169469404  16.501531249169517  2.540291874462086  16.93383961550041  120.000000
6.95145  0.000000  0.000000  0.000000  -35.78000607934927  -0.4735382033475136  1.8889335429754353  51.204454502547705  -7.038952469949306  3.560398767286666  18.185630874273397  13.626098235354332  -4.060733944940203  17.268189721259795  120.000000
7.008900000000001  0.000000  0.000000  0.000000  -36.403321856063734  -0.06478853449078063  0.8060812860993096  50.02530676497077  -4.462900209886042  2.8171359306058785  29.157314067676385  11.401748468988643  -12.723802063641173  17.424605905288423  120.000000
7.06635  0.000000  0.000000  0.000000  -37.14124859688594  0.1955174128522743  -0.40477361638148907  48.89409837556821  -1.9403609091116847  2.3044002830629218  41.97349831506839  9.866750029541029  -23.27485026954732  17.419850999173747  120.000000
7.1238  0.000000  0.000000  0.000000  -37.98254525242684  0.3557827793635368  -1.6529763817984586  47.82903810176235  0.4653798718967032  2.0015758570903954  55.739468689279455  8.982719342897571  -34.87334599942903  17.318337348494385  120.000000
7.18125  0.000000  0.000000  0.000000  -38.91010574894241  0.466960847419715  -2.862261336092505  46.83454016865448  2.7115066715235097  1.860391186631194  69.1019108134643  8.644988196094431  -46.22556151444414  17.206064980209586  120.000000
7.2387  0.000000  0.000000  0.000000  -39.89468966921051  0.5638911703713719  -3.968567127035749  45.91130288310582  4.758203510268535  1.8353362983359174  80.93248020961815  8.707617215298999  -56.25469478499753  17.1588379145767  120.000000
7.29615  0.000000  0.000000  0.000000  -40.89966933487763  0.6627929054089292  -4.925008155643729  45.065640719524026  6.574367336800265  1.8881133676261446  90.72079350963362  9.022820987327306  -64.48688438581267  17.213792044775648  120.000000
7.3536  0.000000  0.000000  0.000000  -41.88107359001065  0.7706659427480976  -5.702823676177291  44.314843195590896  8.141259849089172  1.9835188329047784  98.49673231774625  9.466032514155053  -70.96732824398076  17.364530476934  120.000000
7.41105  0.000000  0.000000  0.000000  -42.79469017902821  0.891422194263838  -6.288403168970905  43.679422056393584  9.450557716651463  2.092134329039445  104.55906153203158  9.941601663698496  -75.99057303329302  17.57726168736552  120.000000
7.468500000000001  0.000000  0.000000  0.000000  -43.6068011025212  1.0253526739028351  -6.680108623328799  43.174344387513024  10.503052593689668  2.190005254318548  109.25607862681433  10.381471065541472  -79.88935467854921  17.81276246067397  120.000000
7.52595  0.000000  0.000000  0.000000  -44.29513841085419  1.1716095293029343  -6.886337556403066  42.80734462464853  11.305259699089564  2.2589751976639456  112.89204084993541  10.74522014003334  -82.94619441008994  18.044451451717162  120.000000
7.5834  0.000000  0.000000  0.000000  -44.85346621228571  1.3255942778097949  -6.9226375813977565  42.573058464384026  11.869019199984963  2.286453573065118  115.6920132920251  11.013373199254426  -85.36314605854324  18.26341590447826  120.000000
7.64085  0.000000  0.000000  0.000000  -45.288555041570135  1.4846298550173809  -6.8098356201007375  42.45005120138161  12.210888560638978  2.26441176142629  117.8194671220889  11.177303052523538  -87.2785091642132  18.4726348784428  120.000000
7.6983  0.000000  0.000000  0.000000  -45.61399808123492  1.6480572803315177  -6.573678109071585  42.407004763545274  12.353669958014494  2.1862543054737884  119.38913481348293  11.23405483575066  -88.78053833972598  18.678426636462458  120.000000
7.75575  0.000000  0.000000  0.000000  -45.844230880732795  1.8129969275041968  -6.242499464702705  42.41134224813947  12.322061912240569  2.050210174308183  120.47257703679334  11.18856786553968  -89.91642416561182  18.884339774505598  120.000000
7.8132  0.000000  0.000000  0.000000  -45.989939679762784  1.972433178922157  -5.845717218440205  42.43708483596903  12.138978546762003  1.8615826856927562  121.0995236752127  11.054356744550265  -90.69562829190407  19.08979283560961  120.000000
7.87065  0.000000  0.000000  0.000000  -46.05362856821305  2.1174314745541025  -5.413669062545464  42.46886884074725  11.824790563938679  1.63095486137257  121.26687460991363  10.847846868451425  -91.1005452265801  19.29172991926912  120.000000
7.928100000000001  0.000000  0.000000  0.000000  -46.03198802538867  2.2401198110814096  -4.976659523913228  42.50022340118999  11.397188147829176  1.3743828630920323  120.94940514320122  10.582467386635852  -91.09998142915366  19.487791784744406  120.000000
7.98555  0.000000  0.000000  0.000000  -45.91626709684301  2.3352030383256497  -4.563961549198091  42.532644395482045  10.872126985111056  1.1119388315482326  120.10534672766181  10.265666212465145  -90.65538633146096  19.68057096973005  120.000000
